#!OML:ASF X:\für Bonn\!DataBase\2005_08_10_Bjorn_Final\c3d\bjorn.ASF
:FULLY-SPECIFIED
:DEGREES
500
root 0.225776 1.70916 18.0895 -447.009 -176.349 -702.721
lowerback 13.1274 7.84288 -3.43995
upperback 21.8923 6.09608 0.90618
thorax 17.1859 -0.0393931 2.23794
lowerneck 15.192 -3.98865 -1.86749
upperneck 18.9729 -8.65857 1.67926
head 3.93571 -5.59258 0.892802
rclavicle -3.18055e-014 -3.81667e-014
rhumerus -169.255 -185.513 112.154
rradius 29.3301
rwrist -8.01532
rhand -0.788536 5.40923
rfingers 7.12502
rthumb 24.8349 -22.9979
lclavicle -3.18055e-014 -3.81667e-014
lhumerus 34.4439 -47.1238 54.3213
lradius 42.082
lwrist -11.0942
lhand -20.5873 -378.698
lfingers 7.12502
lthumb 5.77284 11.2033
rfemur -27.5364 -11.2845 12.8935
rtibia 45.8776
rfoot 12.0587 5.39914
rtoes -6.63961
lfemur 168.838 182.788 166.015
ltibia 19.061
lfoot 7.50428 4.84822
ltoes 9.5968
501
root 0.21905 1.70317 18.0844 -447.155 -176.439 -702.762
lowerback 12.3397 7.75149 -3.70829
upperback 21.5213 6.21783 0.816955
thorax 17.1052 0.0981065 2.35987
lowerneck 15.0267 -3.99887 -1.97899
upperneck 19.44 -8.78641 1.78872
head 4.15683 -5.69602 0.928126
rclavicle 1.59028e-015 9.85972e-014
rhumerus -169.701 -186.589 112.262
rradius 29.5051
rwrist -7.86211
rhand -1.09018 5.47865
rfingers 7.12502
rthumb 24.5458 -22.968
lclavicle 1.59028e-015 9.85972e-014
lhumerus 34.474 -47.7462 53.7541
lradius 42.6091
lwrist -11.2168
lhand -20.8158 -378.847
lfingers 7.12502
lthumb 5.55216 11.0598
rfemur -26.7754 -11.3932 12.9913
rtibia 44.8137
rfoot 11.5844 5.80416
rtoes -7.11493
lfemur 168.823 182.923 166.087
ltibia 19.4323
lfoot 7.15891 4.96121
ltoes 9.46605
502
root 0.213107 1.69773 18.0779 -447.293 -176.544 -702.824
lowerback 11.5405 7.66078 -3.94697
upperback 21.1205 6.34805 0.70424
thorax 17.0027 0.250405 2.44225
lowerneck 14.8346 -3.99511 -2.03655
upperneck 19.9359 -8.89645 1.90536
head 4.3939 -5.78961 0.954322
rclavicle -3.18055e-015 4.45278e-014
rhumerus -170.19 -187.753 112.313
rradius 29.6883
rwrist -7.68182
rhand -1.51584 5.70884
rfingers 7.12502
rthumb 24.1377 -22.7926
lclavicle -3.18055e-015 4.45278e-014
lhumerus 34.5083 -48.3878 53.1143
lradius 43.1993
lwrist -11.3924
lhand -20.8655 -378.917
lfingers 7.12502
lthumb 5.50424 10.9911
rfemur -26.0629 -11.4935 13.1108
rtibia 43.8592
rfoot 11.2163 6.2051
rtoes -7.99383
lfemur 168.806 182.972 166.178
ltibia 19.8053
lfoot 6.82825 4.99427
ltoes 9.45225
503
root 0.207455 1.69266 18.073 -447.396 -176.645 -702.888
lowerback 10.6652 7.54546 -4.23305
upperback 20.7041 6.45455 0.6026
thorax 16.9283 0.383869 2.57055
lowerneck 14.2563 -3.97224 -2.17549
upperneck 21.0859 -9.00957 2.06555
head 4.35375 -5.87521 0.943402
rclavicle -3.49861e-014 -3.18055e-014
rhumerus -170.675 -189.079 112.381
rradius 29.957
rwrist -7.53738
rhand -2.05281 6.00125
rfingers 7.12502
rthumb 23.6227 -22.5676
lclavicle -3.49861e-014 -3.18055e-014
lhumerus 34.4811 -48.965 52.5782
lradius 43.7696
lwrist -11.662
lhand -20.9344 -378.843
lfingers 7.12502
lthumb 5.43767 11.0672
rfemur -25.4327 -11.6517 13.2271
rtibia 43.0067
rfoot 11.0478 6.63728
rtoes -8.7513
lfemur 168.759 183.036 166.268
ltibia 20.1621
lfoot 6.51704 5.06553
ltoes 9.50994
504
root 0.203036 1.68724 18.0674 -447.515 -176.729 -702.97
lowerback 9.80901 7.43759 -4.51445
upperback 20.2694 6.56978 0.479821
thorax 16.8275 0.524332 2.67231
lowerneck 14.0871 -3.95096 -2.25693
upperneck 21.5864 -9.10372 2.20286
head 4.54888 -5.96142 0.976572
rclavicle -6.36111e-015 -3.81667e-014
rhumerus -171.154 -190.484 112.423
rradius 30.2027
rwrist -7.38792
rhand -2.70313 6.40602
rfingers 7.12502
rthumb 22.9989 -22.2419
lclavicle -6.36111e-015 -3.81667e-014
lhumerus 34.5103 -49.6012 51.9222
lradius 44.3654
lwrist -11.8519
lhand -21.0066 -378.802
lfingers 7.12502
lthumb 5.36799 11.11
rfemur -24.8305 -11.7937 13.3255
rtibia 42.2583
rfoot 10.9626 7.11166
rtoes -9.78983
lfemur 168.741 183.009 166.345
ltibia 20.4854
lfoot 6.25785 5.06469
ltoes 9.69414
505
root 0.198928 1.68239 18.0645 -447.609 -176.812 -703.037
lowerback 8.91881 7.2919 -4.80217
upperback 19.8175 6.63898 0.345541
thorax 16.7379 0.643247 2.76782
lowerneck 13.9964 -3.90684 -2.34425
upperneck 22.0026 -9.15956 2.32895
head 4.70534 -6.02898 1.01247
rclavicle 6.99722e-014 -4.77083e-014
rhumerus -171.617 -191.957 112.405
rradius 30.4993
rwrist -7.20282
rhand -3.34352 6.849
rfingers 7.12502
rthumb 22.3842 -21.8741
lclavicle 6.99722e-014 -4.77083e-014
lhumerus 34.5685 -50.1486 51.2843
lradius 44.8576
lwrist -12.1201
lhand -21.0886 -378.869
lfingers 7.12502
lthumb 5.28878 11.0449
rfemur -24.2797 -11.9752 13.4216
rtibia 41.5945
rfoot 11.0173 7.53779
rtoes -10.3324
lfemur 168.726 183.013 166.427
ltibia 20.7576
lfoot 6.00608 5.08029
ltoes 9.90302
506
root 0.194059 1.67791 18.0615 -447.68 -176.914 -703.149
lowerback 8.04766 7.1524 -5.04049
upperback 19.3097 6.72143 0.189723
thorax 16.5756 0.785834 2.81305
lowerneck 13.983 -3.869 -2.40577
upperneck 22.4392 -9.23277 2.42459
head 4.85628 -6.11198 1.03657
rclavicle 7.31528e-014 -1.78111e-013
rhumerus -172.139 -193.55 112.389
rradius 30.8547
rwrist -7.10372
rhand -3.99983 7.26746
rfingers 7.12502
rthumb 21.7541 -21.5301
lclavicle 7.31528e-014 -1.78111e-013
lhumerus 34.7892 -50.8064 50.4671
lradius 45.2738
lwrist -12.2612
lhand -21.2656 -378.972
lfingers 7.12502
lthumb 5.11787 10.9461
rfemur -23.7952 -12.1703 13.5373
rtibia 41.0067
rfoot 11.1877 7.99824
rtoes -10.9717
lfemur 168.718 183.02 166.536
ltibia 20.982
lfoot 5.77144 5.16928
ltoes 10.4439
507
root 0.189209 1.67419 18.0617 -447.749 -176.998 -703.28
lowerback 7.2057 6.99698 -5.28207
upperback 18.7789 6.77676 0.0143436
thorax 16.3776 0.916783 2.83492
lowerneck 14.0166 -3.81225 -2.4705
upperneck 22.8251 -9.26851 2.48062
head 4.982 -6.17787 1.05224
rclavicle 8.26944e-014 -8.26944e-014
rhumerus -172.61 -195.368 112.419
rradius 31.2753
rwrist -7.17622
rhand -4.64679 7.64655
rfingers 7.12502
rthumb 21.1327 -21.2217
lclavicle 8.26944e-014 -8.26944e-014
lhumerus 34.9758 -51.4442 49.6478
lradius 45.6494
lwrist -12.3967
lhand -21.5996 -379.184
lfingers 7.12502
lthumb 4.79536 10.7421
rfemur -23.3348 -12.3626 13.6265
rtibia 40.4794
rfoot 11.4634 8.44929
rtoes -11.4475
lfemur 168.741 183.055 166.622
ltibia 21.1569
lfoot 5.48763 5.30039
ltoes 10.8804
508
root 0.184585 1.67031 18.0619 -447.819 -177.084 -703.404
lowerback 6.39625 6.78479 -5.53721
upperback 18.1894 6.75724 -0.186622
thorax 16.0985 1.02085 2.82996
lowerneck 14.2395 -3.72468 -2.43324
upperneck 23.0842 -9.22508 2.39177
head 5.02698 -6.20659 1.01756
rclavicle 1.90833e-014 -4.77083e-014
rhumerus -173.093 -197.259 112.321
rradius 31.7245
rwrist -7.0768
rhand -5.25769 7.95487
rfingers 7.12502
rthumb 20.5458 -20.9779
lclavicle 1.90833e-014 -4.77083e-014
lhumerus 34.8593 -52.0793 49.0074
lradius 46.0183
lwrist -12.4568
lhand -22.0393 -379.384
lfingers 7.12502
lthumb 4.37084 10.5511
rfemur -22.8864 -12.5432 13.701
rtibia 40.0031
rfoot 11.819 8.84893
rtoes -11.7434
lfemur 168.782 182.956 166.708
ltibia 21.2966
lfoot 5.3044 5.34542
ltoes 11.1942
509
root 0.180549 1.66676 18.0648 -447.836 -177.152 -703.552
lowerback 5.51923 6.57427 -5.78754
upperback 17.6175 6.73758 -0.393813
thorax 15.898 1.11563 2.82006
lowerneck 14.3559 -3.65153 -2.44401
upperneck 23.2128 -9.15875 2.33723
head 5.04783 -6.20581 1.00195
rclavicle -3.18055e-015 1.59028e-014
rhumerus -173.482 -198.994 112.14
rradius 32.1946
rwrist -6.71492
rhand -5.86012 8.1729
rfingers 7.12502
rthumb 19.9668 -20.8213
lclavicle -3.18055e-015 1.59028e-014
lhumerus 34.6667 -52.6775 48.3788
lradius 46.4883
lwrist -12.4405
lhand -22.5345 -379.569
lfingers 7.12502
lthumb 3.89263 10.3753
rfemur -22.5177 -12.705 13.7646
rtibia 39.5679
rfoot 12.2591 9.18772
rtoes -11.8504
lfemur 168.778 182.874 166.771
ltibia 21.4051
lfoot 5.15788 5.43589
ltoes 11.4196
510
root 0.176773 1.66407 18.0684 -447.845 -177.235 -703.711
lowerback 4.65282 6.32967 -6.02334
upperback 17.0231 6.66671 -0.598226
thorax 15.6767 1.18754 2.80099
lowerneck 14.5677 -3.53614 -2.56395
upperneck 23.1443 -9.02759 2.37565
head 4.99716 -6.16741 1.04332
rclavicle -7.63333e-014 3.49861e-014
rhumerus -173.954 -200.885 111.923
rradius 32.9161
rwrist -6.36404
rhand -6.43136 8.17777
rfingers 7.12502
rthumb 19.4176 -20.8727
lclavicle -7.63333e-014 3.49861e-014
lhumerus 34.2405 -53.2423 47.883
lradius 47.0353
lwrist -12.3294
lhand -22.9921 -379.644
lfingers 7.12502
lthumb 3.45071 10.3081
rfemur -22.1706 -12.8702 13.8383
rtibia 39.1659
rfoot 12.7632 9.51398
rtoes -11.8389
lfemur 168.785 182.711 166.845
ltibia 21.4934
lfoot 5.08075 5.43148
ltoes 11.2995
511
root 0.173126 1.66132 18.0725 -447.829 -177.316 -703.868
lowerback 3.79358 6.05571 -6.23744
upperback 16.4126 6.54975 -0.805241
thorax 15.4461 1.23889 2.76225
lowerneck 14.9346 -3.41822 -2.71768
upperneck 22.7894 -8.84862 2.41969
head 4.8318 -6.09065 1.10662
rclavicle 1.27222e-014 -9.54166e-015
rhumerus -174.513 -202.848 111.666
rradius 33.9021
rwrist -6.0047
rhand -6.97652 8.03522
rfingers 7.12502
rthumb 18.8934 -21.0672
lclavicle 1.27222e-014 -9.54166e-015
lhumerus 33.7303 -53.7529 47.4069
lradius 47.6681
lwrist -12.288
lhand -23.3479 -379.523
lfingers 7.12502
lthumb 3.10711 10.4345
rfemur -21.8588 -13.0154 13.9069
rtibia 38.7915
rfoot 13.3275 9.80319
rtoes -11.4753
lfemur 168.764 182.532 166.921
ltibia 21.567
lfoot 5.02206 5.42242
ltoes 11.3034
512
root 0.169704 1.65946 18.0779 -447.782 -177.363 -704.036
lowerback 2.96662 5.78756 -6.41548
upperback 15.7883 6.42895 -1.04515
thorax 15.1944 1.29204 2.66188
lowerneck 15.2902 -3.34334 -2.7533
upperneck 22.3409 -8.67166 2.35689
head 4.63007 -5.99748 1.11914
rclavicle -1.90833e-014 4.45278e-014
rhumerus -175.312 -204.721 111.232
rradius 35.1675
rwrist -5.50668
rhand -7.64376 7.88189
rfingers 7.12502
rthumb 18.2516 -21.2818
lclavicle -1.90833e-014 4.45278e-014
lhumerus 33.2001 -54.3248 46.7902
lradius 48.4632
lwrist -12.0644
lhand -23.6871 -379.346
lfingers 7.12502
lthumb 2.77953 10.6156
rfemur -21.5925 -13.1295 13.9348
rtibia 38.4347
rfoot 13.9462 10.0493
rtoes -10.9468
lfemur 168.716 182.317 166.956
ltibia 21.6375
lfoot 5.00933 5.40441
ltoes 11.2232
513
root 0.167124 1.65839 18.0836 -447.674 -177.392 -704.224
lowerback 2.17267 5.54086 -6.53357
upperback 15.1162 6.32696 -1.31705
thorax 14.877 1.36595 2.49042
lowerneck 15.6978 -3.28964 -2.76888
upperneck 21.7676 -8.50771 2.34299
head 4.384 -5.89787 1.1483
rclavicle -2.22639e-014 4.6118e-014
rhumerus -176.275 -206.485 110.669
rradius 36.5401
rwrist -5.02333
rhand -8.42713 7.87594
rfingers 7.12502
rthumb 17.4978 -21.3566
lclavicle -2.22639e-014 4.6118e-014
lhumerus 32.5025 -54.9899 46.21
lradius 49.4116
lwrist -11.8164
lhand -23.9812 -379.105
lfingers 7.12502
lthumb 2.49549 10.86
rfemur -21.401 -13.2497 13.9559
rtibia 38.0825
rfoot 14.5627 10.2881
rtoes -10.4006
lfemur 168.604 182.205 166.98
ltibia 21.7167
lfoot 4.93395 5.42738
ltoes 11.2026
514
root 0.16429 1.65704 18.0909 -447.527 -177.452 -704.401
lowerback 1.47224 5.31065 -6.52302
upperback 14.3919 6.22242 -1.5917
thorax 14.4553 1.4575 2.23762
lowerneck 16.1414 -3.2476 -2.83702
upperneck 21.1185 -8.35794 2.36792
head 4.11421 -5.80023 1.20045
rclavicle -2.8625e-014 9.70069e-014
rhumerus -177.399 -208.137 110.033
rradius 38.0204
rwrist -4.60113
rhand -9.16681 8.16128
rfingers 7.12502
rthumb 16.7859 -21.1331
lclavicle -2.8625e-014 9.70069e-014
lhumerus 31.4209 -55.727 45.9278
lradius 50.5266
lwrist -11.6793
lhand -24.2482 -378.833
lfingers 7.12502
lthumb 2.23761 11.1353
rfemur -21.2621 -13.3464 14.0116
rtibia 37.7358
rfoot 15.117 10.4881
rtoes -9.89414
lfemur 168.436 182.043 167.036
ltibia 21.8021
lfoot 4.93365 5.40271
ltoes 11.2169
